#!OML:ASF I:\Actors\actors\Patient Classification 2\Patient 1\Session 1\actor1.ASF
:FULLY-SPECIFIED
:DEGREES
128
root -0.480768 18.634 5.65729 0.690377 -4.38212 -0.0879344
lowerback 0.712108 1.506 -1.8032
upperback -2.83761 1.95457 -0.375035
thorax -3.36238 1.01732 0.552156
lowerneck -9.08254 -2.35551 -1.82117
upperneck 23.7647 -3.82426 3.49764
head 9.0302 -1.60027 1.10073
rclavicle 1.98785e-014 -1.45113e-014
rhumerus -49.6113 -3.5009 -87.3092
rradius 41.7012
rwrist 19.1698
rhand -10.8904 -28.4565
rfingers 7.12502
rthumb 15.1261 -57.8838
lclavicle 1.98785e-014 -1.45113e-014
lhumerus -43.6629 1.86333 90.3869
lradius 37.5276
lwrist -9.04589
lhand -5.99721 -26.0317
lfingers 7.12502
lthumb 19.835 2.97618
rfemur 0 0 0
rtibia 0
rfoot 0 0
rtoes 0
lfemur -1.25215 -5.11578 -15.4902
ltibia 19.3505
lfoot -25.6183 18.1385
ltoes -55.1324
129
root -0.480388 18.6337 5.65832 0.701764 -4.3885 -0.0723227
lowerback 0.690679 1.51236 -1.82305
upperback -2.84119 1.96288 -0.379047
thorax -3.35475 1.02192 0.559363
lowerneck -9.04765 -2.35994 -1.84539
upperneck 23.7473 -3.83188 3.52396
head 9.01886 -1.60387 1.11336
rclavicle 2.85504e-014 -1.47101e-014
rhumerus -49.5628 -3.45112 -87.3553
rradius 41.4605
rwrist 18.4441
rhand -9.75556 -29.2036
rfingers 7.12502
rthumb 16.219 -58.5452
lclavicle 2.85504e-014 -1.47101e-014
lhumerus -43.6829 1.85288 90.3964
lradius 37.5349
lwrist -9.01389
lhand -6.01393 -26.0085
lfingers 7.12502
lthumb 19.819 3.00098
rfemur 0 0 0
rtibia 0
rfoot 0 0
rtoes 0
lfemur -1.24007 -5.23349 -15.5206
ltibia 19.351
lfoot -25.6335 18.2011
ltoes -55.1213
130
root -0.479855 18.6341 5.65947 0.703395 -4.40058 -0.0775697
lowerback 0.676833 1.52223 -1.81868
upperback -2.84236 1.97649 -0.377932
thorax -3.34836 1.02858 0.557932
lowerneck -9.03695 -2.36895 -1.87905
upperneck 23.7709 -3.84442 3.54535
head 9.02653 -1.61038 1.12522
rclavicle -1.56791e-014 1.0138e-014
rhumerus -49.5335 -3.51221 -87.3291
rradius 41.3242
rwrist 18.1868
rhand -9.13769 -29.5149
rfingers 7.12502
rthumb 16.8139 -58.8069
lclavicle -1.56791e-014 1.0138e-014
lhumerus -43.7001 1.86598 90.3934
lradius 37.5366
lwrist -9.01945
lhand -6.03597 -26.0067
lfingers 7.12502
lthumb 19.7978 3.00498
rfemur 0 0 0
rtibia 0
rfoot 0 0
rtoes 0
lfemur -1.22112 -5.23892 -15.5126
ltibia 19.3487
lfoot -25.6012 18.1682
ltoes -55.099
131
root -0.479954 18.6347 5.66079 0.701459 -4.41578 -0.0847225
lowerback 0.668791 1.53349 -1.81359
upperback -2.84539 1.99179 -0.377622
thorax -3.34716 1.03609 0.555009
lowerneck -9.0347 -2.37645 -1.87518
upperneck 23.8154 -3.84896 3.51034
head 9.04089 -1.61534 1.11228
rclavicle -5.34234e-015 3.77691e-015
rhumerus -49.5506 -3.56616 -87.294
rradius 41.3205
rwrist 18.2333
rhand -9.1325 -29.4656
rfingers 7.12502
rthumb 16.8189 -58.7572
lclavicle -5.34234e-015 3.77691e-015
lhumerus -43.7368 1.88467 90.3786
lradius 37.5686
lwrist -9.05998
lhand -6.05127 -26.0447
lfingers 7.12502
lthumb 19.7831 2.96851
rfemur 0 0 0
rtibia 0
rfoot 0 0
rtoes 0
lfemur -1.20776 -5.21803 -15.5053
ltibia 19.3473
lfoot -25.6397 18.1352
ltoes -55.0652
132
root -0.480853 18.6347 5.66233 0.702745 -4.41602 -0.080787
lowerback 0.658488 1.5384 -1.83057
upperback -2.8474 1.998 -0.38284
thorax -3.344 1.03955 0.559167
lowerneck -9.02428 -2.3736 -1.82488
upperneck 23.8346 -3.84156 3.45446
head 9.04321 -1.61312 1.08565
rclavicle -1.18525e-014 -1.27222e-014
rhumerus -49.5696 -3.56238 -87.3052
rradius 41.3278
rwrist 18.198
rhand -9.26705 -29.4965
rfingers 7.12502
rthumb 16.6894 -58.7991
lclavicle -1.18525e-014 -1.27222e-014
lhumerus -43.756 1.88902 90.3659
lradius 37.5905
lwrist -9.08407
lhand -6.03557 -26.0659
lfingers 7.12502
lthumb 19.7982 2.94573
rfemur 0 0 0
rtibia 0
rfoot 0 0
rtoes 0
lfemur -1.2107 -5.18961 -15.5107
ltibia 19.3503
lfoot -25.7225 18.1033
ltoes -55.0549
133
root -0.481877 18.6341 5.66304 0.715549 -4.3795 -0.0763186
lowerback 0.642072 1.53362 -1.84706
upperback -2.8492 1.99129 -0.392466
thorax -3.33668 1.03648 0.559199
lowerneck -9.00293 -2.37651 -1.80198
upperneck 23.8386 -3.85242 3.46355
head 9.04068 -1.61544 1.08398
rclavicle -1.34925e-014 4.17448e-015
rhumerus -49.5635 -3.59848 -87.2938
rradius 41.4041
rwrist 18.5418
rhand -10.0558 -29.1867
rfingers 7.12502
rthumb 15.9299 -58.5515
lclavicle -1.34925e-014 4.17448e-015
lhumerus -43.7501 1.86254 90.3644
lradius 37.5745
lwrist -9.08544
lhand -6.03588 -26.0628
lfingers 7.12502
lthumb 19.7979 2.9489
rfemur 0 0 0
rtibia 0
rfoot 0 0
rtoes 0
lfemur -1.23126 -5.17486 -15.5011
ltibia 19.3545
lfoot -25.5497 18.2103
ltoes -55.1527
134
root -0.481536 18.6336 5.66441 0.72259 -4.37126 -0.0862586
lowerback 0.613234 1.53614 -1.83129
upperback -2.84158 1.99572 -0.394792
thorax -3.31196 1.03805 0.548848
lowerneck -8.96849 -2.38248 -1.80911
upperneck 23.8447 -3.86828 3.4978
head 9.03767 -1.62031 1.09562
rclavicle -4.89507e-015 -1.78906e-015
rhumerus -49.5731 -3.67493 -87.2206
rradius 41.695
rwrist 19.6492
rhand -9.24201 -29.4719
rfingers 7.12502
rthumb 16.7135 -58.7725
lclavicle -4.89507e-015 -1.78906e-015
lhumerus -43.7546 1.84009 90.3663
lradius 37.5584
lwrist -9.07836
lhand -6.09364 -26.0855
lfingers 7.12502
lthumb 19.7423 2.93197
rfemur 0 0 0
rtibia 0
rfoot 0 0
rtoes 0
lfemur -1.22842 -5.24456 -15.4932
ltibia 19.3571
lfoot -25.3766 18.3976
ltoes -55.2444
135
root -0.48042 18.6335 5.66647 0.716464 -4.40289 -0.0983765
lowerback 0.589885 1.54197 -1.80696
upperback -2.82962 2.00483 -0.391463
thorax -3.28586 1.04176 0.539272
lowerneck -8.93784 -2.36789 -1.81155
upperneck 23.856 -3.84881 3.50129
head 9.03534 -1.6113 1.09967
rclavicle -6.28657e-015 -4.96962e-015
rhumerus -49.5715 -3.59285 -87.2965
rradius 41.4086
rwrist 18.5516
rhand -9.81205 -29.0776
rfingers 7.12502
rthumb 16.1646 -58.4236
lclavicle -6.28657e-015 -4.96962e-015
lhumerus -43.7674 1.86163 90.3551
lradius 37.5587
lwrist -9.07058
lhand -6.12224 -26.1256
lfingers 7.12502
lthumb 19.7148 2.89468
rfemur 0 0 0
rtibia 0
rfoot 0 0
rtoes 0
lfemur -1.20386 -5.29786 -15.4977
ltibia 19.3612
lfoot -25.4303 18.4601
ltoes -55.2544
136
root -0.480086 18.6334 5.66827 0.712411 -4.40812 -0.0849099
lowerback 0.568179 1.54224 -1.80994
upperback -2.81803 2.00543 -0.403041
thorax -3.26132 1.04176 0.529909
lowerneck -8.95063 -2.35937 -1.80266
upperneck 23.9 -3.83719 3.48946
head 9.05222 -1.60564 1.09531
rclavicle -3.40419e-015 6.55989e-015
rhumerus -49.5763 -3.57292 -87.3351
rradius 41.3223
rwrist 18.1971
rhand -9.15725 -29.3704
rfingers 7.12502
rthumb 16.7951 -58.664
lclavicle -3.40419e-015 6.55989e-015
lhumerus -43.7664 1.88775 90.3374
lradius 37.5653
lwrist -9.06342
lhand -6.08453 -26.1166
lfingers 7.12502
lthumb 19.7511 2.8999
rfemur 0 0 0
rtibia 0
rfoot 0 0
rtoes 0
lfemur -1.19455 -5.34254 -15.5249
ltibia 19.3689
lfoot -25.4714 18.5179
ltoes -55.2678
137
root -0.480823 18.6336 5.66945 0.72518 -4.38812 -0.0824973
lowerback 0.545082 1.54392 -1.81008
upperback -2.81276 2.0079 -0.415915
thorax -3.24242 1.04266 0.51748
lowerneck -8.98395 -2.37891 -1.82213
upperneck 23.959 -3.87201 3.52587
head 9.08126 -1.61886 1.10711
rclavicle -8.44835e-016 4.37326e-015
rhumerus -49.5884 -3.62588 -87.336
rradius 41.3395
rwrist 18.2398
rhand -9.12538 -29.3703
rfingers 7.12502
rthumb 16.8257 -58.6613
lclavicle -8.44835e-016 4.37326e-015
lhumerus -43.7566 1.92596 90.3162
lradius 37.5505
lwrist -9.09517
lhand -6.11456 -26.1328
lfingers 7.12502
lthumb 19.7222 2.88666
rfemur 0 0 0
rtibia 0
rfoot 0 0
rtoes 0
lfemur -1.21155 -5.38795 -15.5326
ltibia 19.3715
lfoot -25.682 18.3747
ltoes -55.1421
138
root -0.481776 18.6343 5.67043 0.753106 -4.37402 -0.0745914
lowerback 0.504279 1.53813 -1.82888
upperback -2.81041 2.00068 -0.417013
thorax -3.21744 1.03938 0.528372
lowerneck -8.99118 -2.39148 -1.88161
upperneck 23.9824 -3.89444 3.58705
head 9.09393 -1.628 1.13569
rclavicle 3.3048e-015 -5.56597e-015
rhumerus -49.5844 -3.62629 -87.347
rradius 41.3485
rwrist 18.2308
rhand -9.06356 -29.4051
rfingers 7.12502
rthumb 16.8853 -58.691
lclavicle 3.3048e-015 -5.56597e-015
lhumerus -43.7577 1.99395 90.2974
lradius 37.531
lwrist -9.17246
lhand -6.26672 -26.193
lfingers 7.12502
lthumb 19.5759 2.84149
rfemur 0 0 0
rtibia 0
rfoot 0 0
rtoes 0
lfemur -1.25005 -5.35676 -15.535
ltibia 19.3634
lfoot -25.8226 18.2125
ltoes -55.0508
139
root -0.482081 18.6348 5.67186 0.767259 -4.36743 -0.0269043
lowerback 0.462193 1.52661 -1.88967
upperback -2.79946 1.98493 -0.422195
thorax -3.18401 1.03276 0.559
lowerneck -9.01563 -2.39461 -1.90296
upperneck 24.0128 -3.89395 3.57879
head 9.10937 -1.62993 1.13633
rclavicle 1.58034e-014 -9.54166e-015
rhumerus -49.5752 -3.59821 -87.3606
rradius 41.3524
rwrist 18.2055
rhand -9.06745 -29.4325
rfingers 7.12502
rthumb 16.8815 -58.7188
lclavicle 1.58034e-014 -9.54166e-015
lhumerus -43.7623 2.0261 90.2989
lradius 37.5343
lwrist -9.20172
lhand -6.3928 -26.227
lfingers 7.12502
lthumb 19.4547 2.81977
rfemur 0 0 0
rtibia 0
rfoot 0 0
rtoes 0
lfemur -1.27479 -5.26667 -15.5699
ltibia 19.3578
lfoot -25.5597 18.3469
ltoes -55.2348
140
root -0.482147 18.6351 5.67262 0.765922 -4.3549 0.00853028
lowerback 0.476383 1.51489 -1.9194
upperback -2.79819 1.96797 -0.434613
thorax -3.19091 1.02493 0.563041
lowerneck -9.04813 -2.39474 -1.83924
upperneck 24.0616 -3.88471 3.48396
head 9.12893 -1.6289 1.09381
rclavicle 4.82053e-015 -1.07344e-014
rhumerus -49.5875 -3.60696 -87.3669
rradius 41.3693
rwrist 18.1839
rhand -9.09307 -29.4558
rfingers 7.12502
rthumb 16.8568 -58.7441
lclavicle 4.82053e-015 -1.07344e-014
lhumerus -43.7691 2.07633 90.2824
lradius 37.5397
lwrist -9.224
lhand -6.34986 -26.2422
lfingers 7.12502
lthumb 19.496 2.80036
rfemur 0 0 0
rtibia 0
rfoot 0 0
rtoes 0
lfemur -1.26769 -5.24614 -15.5962
ltibia 19.3545
lfoot -25.3644 18.4574
ltoes -55.3673
